<?xml version="1.0" standalone="no"?>
 <!DOCTYPE svg PUBLIC "-//W3C//DTD SVG 1.1//EN" 
 "http://www.w3.org/Graphics/SVG/1.1/DTD/svg11.dtd"> 
<svg xmlns="http://www.w3.org/2000/svg" version="1.1" 
    width="29.7002cm" height="21.0007cm" viewBox="0 0 116930 82680 ">
<title>SVG Picture created as Arduino_Pro-F.SilkS.svg date 2017/02/17 11:50:43 </title>
  <desc>Picture generated by PCBNEW </desc>
<g style="fill:#000000; fill-opacity:1;stroke:#000000; stroke-opacity:1;
stroke-linecap:round; stroke-linejoin:round; "
 transform="translate(0 0) scale(1 1)">
</g>
<g style="fill:#000000; fill-opacity:0.0; 
stroke:#000000; stroke-width:-0.000393701; stroke-opacity:1; 
stroke-linecap:round; stroke-linejoin:round;">
</g>
<g style="fill:#000000; fill-opacity:0.0; 
stroke:#000000; stroke-width:39.3701; stroke-opacity:1; 
stroke-linecap:round; stroke-linejoin:round;">
</g>
<g style="fill:#000000; fill-opacity:0.0; 
stroke:#000000; stroke-width:59.0551; stroke-opacity:1; 
stroke-linecap:round; stroke-linejoin:round;">
<rect x="69685.9" y="65357.2" width="42519.7" height="12598.4" rx="0" />
</g>
<g style="fill:#000000; fill-opacity:0.0; 
stroke:#000000; stroke-width:39.3701; stroke-opacity:1; 
stroke-linecap:round; stroke-linejoin:round;">
</g>
<g style="fill:#000000; fill-opacity:0.0; 
stroke:#000000; stroke-width:59.0551; stroke-opacity:1; 
stroke-linecap:round; stroke-linejoin:round;">
<rect x="3937.01" y="3937.01" width="109056" height="74806" rx="0" />
</g>
<g style="fill:#000000; fill-opacity:0.0; 
stroke:#000000; stroke-width:39.3701; stroke-opacity:1; 
stroke-linecap:round; stroke-linejoin:round;">
</g>
<g style="fill:#000000; fill-opacity:0.0; 
stroke:#000000; stroke-width:59.0551; stroke-opacity:1; 
stroke-linecap:round; stroke-linejoin:round;">
<rect x="4724.41" y="4724.41" width="107481" height="73231.2" rx="0" />
</g>
<g style="fill:#000000; fill-opacity:0.0; 
stroke:#000000; stroke-width:39.3701; stroke-opacity:1; 
stroke-linecap:round; stroke-linejoin:round;">
</g>
<g style="fill:#000000; fill-opacity:0.0; 
stroke:#000000; stroke-width:59.0551; stroke-opacity:1; 
stroke-linecap:round; stroke-linejoin:round;">
<path d="M23622 4724
L23622 3937
" />
</g>
<g style="fill:#000000; fill-opacity:0.0; 
stroke:#000000; stroke-width:39.3701; stroke-opacity:1; 
stroke-linecap:round; stroke-linejoin:round;">
</g>
<g style="fill:#000000; fill-opacity:0.0; 
stroke:#000000; stroke-width:59.0551; stroke-opacity:1; 
stroke-linecap:round; stroke-linejoin:round;">
<path d="M43307 4724
L43307 3937
" />
</g>
<g style="fill:#000000; fill-opacity:0.0; 
stroke:#000000; stroke-width:39.3701; stroke-opacity:1; 
stroke-linecap:round; stroke-linejoin:round;">
</g>
<g style="fill:#000000; fill-opacity:0.0; 
stroke:#000000; stroke-width:59.0551; stroke-opacity:1; 
stroke-linecap:round; stroke-linejoin:round;">
<path d="M62992 4724
L62992 3937
" />
</g>
<g style="fill:#000000; fill-opacity:0.0; 
stroke:#000000; stroke-width:39.3701; stroke-opacity:1; 
stroke-linecap:round; stroke-linejoin:round;">
</g>
<g style="fill:#000000; fill-opacity:0.0; 
stroke:#000000; stroke-width:59.0551; stroke-opacity:1; 
stroke-linecap:round; stroke-linejoin:round;">
<path d="M82677 4724
L82677 3937
" />
</g>
<g style="fill:#000000; fill-opacity:0.0; 
stroke:#000000; stroke-width:39.3701; stroke-opacity:1; 
stroke-linecap:round; stroke-linejoin:round;">
</g>
<g style="fill:#000000; fill-opacity:0.0; 
stroke:#000000; stroke-width:59.0551; stroke-opacity:1; 
stroke-linecap:round; stroke-linejoin:round;">
<path d="M102362 4724
L102362 3937
" />
</g>
<g style="fill:#000000; fill-opacity:0.0; 
stroke:#000000; stroke-width:39.3701; stroke-opacity:1; 
stroke-linecap:round; stroke-linejoin:round;">
</g>
<g style="fill:#000000; fill-opacity:0.0; 
stroke:#000000; stroke-width:59.0551; stroke-opacity:1; 
stroke-linecap:round; stroke-linejoin:round;">
<path d="M14169 4562
L13877 4562
" />
<path d="M14023 4562
L14023 4050
L13974 4123
L13925 4172
L13877 4196
" />
</g>
<g style="fill:#000000; fill-opacity:0.0; 
stroke:#000000; stroke-width:39.3701; stroke-opacity:1; 
stroke-linecap:round; stroke-linejoin:round;">
</g>
<g style="fill:#000000; fill-opacity:0.0; 
stroke:#000000; stroke-width:59.0551; stroke-opacity:1; 
stroke-linecap:round; stroke-linejoin:round;">
<path d="M33562 4099
L33586 4074
L33635 4050
L33757 4050
L33805 4074
L33830 4099
L33854 4147
L33854 4196
L33830 4269
L33537 4562
L33854 4562
" />
</g>
<g style="fill:#000000; fill-opacity:0.0; 
stroke:#000000; stroke-width:39.3701; stroke-opacity:1; 
stroke-linecap:round; stroke-linejoin:round;">
</g>
<g style="fill:#000000; fill-opacity:0.0; 
stroke:#000000; stroke-width:59.0551; stroke-opacity:1; 
stroke-linecap:round; stroke-linejoin:round;">
<path d="M53222 4050
L53539 4050
L53368 4245
L53442 4245
L53490 4269
L53515 4294
L53539 4342
L53539 4464
L53515 4513
L53490 4537
L53442 4562
L53295 4562
L53247 4537
L53222 4513
" />
</g>
<g style="fill:#000000; fill-opacity:0.0; 
stroke:#000000; stroke-width:39.3701; stroke-opacity:1; 
stroke-linecap:round; stroke-linejoin:round;">
</g>
<g style="fill:#000000; fill-opacity:0.0; 
stroke:#000000; stroke-width:59.0551; stroke-opacity:1; 
stroke-linecap:round; stroke-linejoin:round;">
<path d="M73175 4221
L73175 4562
" />
<path d="M73053 4026
L72932 4391
L73248 4391
" />
</g>
<g style="fill:#000000; fill-opacity:0.0; 
stroke:#000000; stroke-width:39.3701; stroke-opacity:1; 
stroke-linecap:round; stroke-linejoin:round;">
</g>
<g style="fill:#000000; fill-opacity:0.0; 
stroke:#000000; stroke-width:59.0551; stroke-opacity:1; 
stroke-linecap:round; stroke-linejoin:round;">
<path d="M92885 4050
L92641 4050
L92617 4294
L92641 4269
L92690 4245
L92812 4245
L92860 4269
L92885 4294
L92909 4342
L92909 4464
L92885 4513
L92860 4537
L92812 4562
L92690 4562
L92641 4537
L92617 4513
" />
</g>
<g style="fill:#000000; fill-opacity:0.0; 
stroke:#000000; stroke-width:39.3701; stroke-opacity:1; 
stroke-linecap:round; stroke-linejoin:round;">
</g>
<g style="fill:#000000; fill-opacity:0.0; 
stroke:#000000; stroke-width:59.0551; stroke-opacity:1; 
stroke-linecap:round; stroke-linejoin:round;">
<path d="M112545 4050
L112448 4050
L112399 4074
L112375 4099
L112326 4172
L112302 4269
L112302 4464
L112326 4513
L112350 4537
L112399 4562
L112497 4562
L112545 4537
L112570 4513
L112594 4464
L112594 4342
L112570 4294
L112545 4269
L112497 4245
L112399 4245
L112350 4269
L112326 4294
L112302 4342
" />
</g>
<g style="fill:#000000; fill-opacity:0.0; 
stroke:#000000; stroke-width:39.3701; stroke-opacity:1; 
stroke-linecap:round; stroke-linejoin:round;">
</g>
<g style="fill:#000000; fill-opacity:0.0; 
stroke:#000000; stroke-width:59.0551; stroke-opacity:1; 
stroke-linecap:round; stroke-linejoin:round;">
<path d="M23622 77955
L23622 78742
" />
</g>
<g style="fill:#000000; fill-opacity:0.0; 
stroke:#000000; stroke-width:39.3701; stroke-opacity:1; 
stroke-linecap:round; stroke-linejoin:round;">
</g>
<g style="fill:#000000; fill-opacity:0.0; 
stroke:#000000; stroke-width:59.0551; stroke-opacity:1; 
stroke-linecap:round; stroke-linejoin:round;">
<path d="M43307 77955
L43307 78742
" />
</g>
<g style="fill:#000000; fill-opacity:0.0; 
stroke:#000000; stroke-width:39.3701; stroke-opacity:1; 
stroke-linecap:round; stroke-linejoin:round;">
</g>
<g style="fill:#000000; fill-opacity:0.0; 
stroke:#000000; stroke-width:59.0551; stroke-opacity:1; 
stroke-linecap:round; stroke-linejoin:round;">
<path d="M62992 77955
L62992 78742
" />
</g>
<g style="fill:#000000; fill-opacity:0.0; 
stroke:#000000; stroke-width:39.3701; stroke-opacity:1; 
stroke-linecap:round; stroke-linejoin:round;">
</g>
<g style="fill:#000000; fill-opacity:0.0; 
stroke:#000000; stroke-width:59.0551; stroke-opacity:1; 
stroke-linecap:round; stroke-linejoin:round;">
<path d="M82677 77955
L82677 78742
" />
</g>
<g style="fill:#000000; fill-opacity:0.0; 
stroke:#000000; stroke-width:39.3701; stroke-opacity:1; 
stroke-linecap:round; stroke-linejoin:round;">
</g>
<g style="fill:#000000; fill-opacity:0.0; 
stroke:#000000; stroke-width:59.0551; stroke-opacity:1; 
stroke-linecap:round; stroke-linejoin:round;">
<path d="M102362 77955
L102362 78742
" />
</g>
<g style="fill:#000000; fill-opacity:0.0; 
stroke:#000000; stroke-width:39.3701; stroke-opacity:1; 
stroke-linecap:round; stroke-linejoin:round;">
</g>
<g style="fill:#000000; fill-opacity:0.0; 
stroke:#000000; stroke-width:59.0551; stroke-opacity:1; 
stroke-linecap:round; stroke-linejoin:round;">
<path d="M14169 78580
L13877 78580
" />
<path d="M14023 78580
L14023 78069
L13974 78142
L13925 78190
L13877 78215
" />
</g>
<g style="fill:#000000; fill-opacity:0.0; 
stroke:#000000; stroke-width:39.3701; stroke-opacity:1; 
stroke-linecap:round; stroke-linejoin:round;">
</g>
<g style="fill:#000000; fill-opacity:0.0; 
stroke:#000000; stroke-width:59.0551; stroke-opacity:1; 
stroke-linecap:round; stroke-linejoin:round;">
<path d="M33562 78117
L33586 78093
L33635 78069
L33757 78069
L33805 78093
L33830 78117
L33854 78166
L33854 78215
L33830 78288
L33537 78580
L33854 78580
" />
</g>
<g style="fill:#000000; fill-opacity:0.0; 
stroke:#000000; stroke-width:39.3701; stroke-opacity:1; 
stroke-linecap:round; stroke-linejoin:round;">
</g>
<g style="fill:#000000; fill-opacity:0.0; 
stroke:#000000; stroke-width:59.0551; stroke-opacity:1; 
stroke-linecap:round; stroke-linejoin:round;">
<path d="M53222 78069
L53539 78069
L53368 78263
L53442 78263
L53490 78288
L53515 78312
L53539 78361
L53539 78483
L53515 78532
L53490 78556
L53442 78580
L53295 78580
L53247 78556
L53222 78532
" />
</g>
<g style="fill:#000000; fill-opacity:0.0; 
stroke:#000000; stroke-width:39.3701; stroke-opacity:1; 
stroke-linecap:round; stroke-linejoin:round;">
</g>
<g style="fill:#000000; fill-opacity:0.0; 
stroke:#000000; stroke-width:59.0551; stroke-opacity:1; 
stroke-linecap:round; stroke-linejoin:round;">
<path d="M73175 78239
L73175 78580
" />
<path d="M73053 78044
L72932 78410
L73248 78410
" />
</g>
<g style="fill:#000000; fill-opacity:0.0; 
stroke:#000000; stroke-width:39.3701; stroke-opacity:1; 
stroke-linecap:round; stroke-linejoin:round;">
</g>
<g style="fill:#000000; fill-opacity:0.0; 
stroke:#000000; stroke-width:59.0551; stroke-opacity:1; 
stroke-linecap:round; stroke-linejoin:round;">
<path d="M92885 78069
L92641 78069
L92617 78312
L92641 78288
L92690 78263
L92812 78263
L92860 78288
L92885 78312
L92909 78361
L92909 78483
L92885 78532
L92860 78556
L92812 78580
L92690 78580
L92641 78556
L92617 78532
" />
</g>
<g style="fill:#000000; fill-opacity:0.0; 
stroke:#000000; stroke-width:39.3701; stroke-opacity:1; 
stroke-linecap:round; stroke-linejoin:round;">
</g>
<g style="fill:#000000; fill-opacity:0.0; 
stroke:#000000; stroke-width:59.0551; stroke-opacity:1; 
stroke-linecap:round; stroke-linejoin:round;">
<path d="M112545 78069
L112448 78069
L112399 78093
L112375 78117
L112326 78190
L112302 78288
L112302 78483
L112326 78532
L112350 78556
L112399 78580
L112497 78580
L112545 78556
L112570 78532
L112594 78483
L112594 78361
L112570 78312
L112545 78288
L112497 78263
L112399 78263
L112350 78288
L112326 78312
L112302 78361
" />
</g>
<g style="fill:#000000; fill-opacity:0.0; 
stroke:#000000; stroke-width:39.3701; stroke-opacity:1; 
stroke-linecap:round; stroke-linejoin:round;">
</g>
<g style="fill:#000000; fill-opacity:0.0; 
stroke:#000000; stroke-width:59.0551; stroke-opacity:1; 
stroke-linecap:round; stroke-linejoin:round;">
<path d="M3937 23622
L4724 23622
" />
</g>
<g style="fill:#000000; fill-opacity:0.0; 
stroke:#000000; stroke-width:39.3701; stroke-opacity:1; 
stroke-linecap:round; stroke-linejoin:round;">
</g>
<g style="fill:#000000; fill-opacity:0.0; 
stroke:#000000; stroke-width:59.0551; stroke-opacity:1; 
stroke-linecap:round; stroke-linejoin:round;">
<path d="M3937 43307
L4724 43307
" />
</g>
<g style="fill:#000000; fill-opacity:0.0; 
stroke:#000000; stroke-width:39.3701; stroke-opacity:1; 
stroke-linecap:round; stroke-linejoin:round;">
</g>
<g style="fill:#000000; fill-opacity:0.0; 
stroke:#000000; stroke-width:59.0551; stroke-opacity:1; 
stroke-linecap:round; stroke-linejoin:round;">
<path d="M3937 62992
L4724 62992
" />
</g>
<g style="fill:#000000; fill-opacity:0.0; 
stroke:#000000; stroke-width:39.3701; stroke-opacity:1; 
stroke-linecap:round; stroke-linejoin:round;">
</g>
<g style="fill:#000000; fill-opacity:0.0; 
stroke:#000000; stroke-width:59.0551; stroke-opacity:1; 
stroke-linecap:round; stroke-linejoin:round;">
<path d="M4208 13864
L4452 13864
" />
<path d="M4160 14011
L4330 13499
L4501 14011
" />
</g>
<g style="fill:#000000; fill-opacity:0.0; 
stroke:#000000; stroke-width:39.3701; stroke-opacity:1; 
stroke-linecap:round; stroke-linejoin:round;">
</g>
<g style="fill:#000000; fill-opacity:0.0; 
stroke:#000000; stroke-width:59.0551; stroke-opacity:1; 
stroke-linecap:round; stroke-linejoin:round;">
<path d="M4367 33428
L4440 33452
L4464 33476
L4489 33525
L4489 33598
L4464 33647
L4440 33671
L4391 33696
L4196 33696
L4196 33184
L4367 33184
L4416 33208
L4440 33233
L4464 33281
L4464 33330
L4440 33379
L4416 33403
L4367 33428
L4196 33428
" />
</g>
<g style="fill:#000000; fill-opacity:0.0; 
stroke:#000000; stroke-width:39.3701; stroke-opacity:1; 
stroke-linecap:round; stroke-linejoin:round;">
</g>
<g style="fill:#000000; fill-opacity:0.0; 
stroke:#000000; stroke-width:59.0551; stroke-opacity:1; 
stroke-linecap:round; stroke-linejoin:round;">
<path d="M4489 53332
L4464 53356
L4391 53381
L4342 53381
L4269 53356
L4221 53308
L4196 53259
L4172 53161
L4172 53088
L4196 52991
L4221 52942
L4269 52893
L4342 52869
L4391 52869
L4464 52893
L4489 52918
" />
</g>
<g style="fill:#000000; fill-opacity:0.0; 
stroke:#000000; stroke-width:39.3701; stroke-opacity:1; 
stroke-linecap:round; stroke-linejoin:round;">
</g>
<g style="fill:#000000; fill-opacity:0.0; 
stroke:#000000; stroke-width:59.0551; stroke-opacity:1; 
stroke-linecap:round; stroke-linejoin:round;">
<path d="M4196 73066
L4196 72554
L4318 72554
L4391 72578
L4440 72627
L4464 72676
L4489 72773
L4489 72846
L4464 72944
L4440 72993
L4391 73041
L4318 73066
L4196 73066
" />
</g>
<g style="fill:#000000; fill-opacity:0.0; 
stroke:#000000; stroke-width:39.3701; stroke-opacity:1; 
stroke-linecap:round; stroke-linejoin:round;">
</g>
<g style="fill:#000000; fill-opacity:0.0; 
stroke:#000000; stroke-width:59.0551; stroke-opacity:1; 
stroke-linecap:round; stroke-linejoin:round;">
<path d="M112992 23622
L112205 23622
" />
</g>
<g style="fill:#000000; fill-opacity:0.0; 
stroke:#000000; stroke-width:39.3701; stroke-opacity:1; 
stroke-linecap:round; stroke-linejoin:round;">
</g>
<g style="fill:#000000; fill-opacity:0.0; 
stroke:#000000; stroke-width:59.0551; stroke-opacity:1; 
stroke-linecap:round; stroke-linejoin:round;">
<path d="M112992 43307
L112205 43307
" />
</g>
<g style="fill:#000000; fill-opacity:0.0; 
stroke:#000000; stroke-width:39.3701; stroke-opacity:1; 
stroke-linecap:round; stroke-linejoin:round;">
</g>
<g style="fill:#000000; fill-opacity:0.0; 
stroke:#000000; stroke-width:59.0551; stroke-opacity:1; 
stroke-linecap:round; stroke-linejoin:round;">
<path d="M112992 62992
L112205 62992
" />
</g>
<g style="fill:#000000; fill-opacity:0.0; 
stroke:#000000; stroke-width:39.3701; stroke-opacity:1; 
stroke-linecap:round; stroke-linejoin:round;">
</g>
<g style="fill:#000000; fill-opacity:0.0; 
stroke:#000000; stroke-width:59.0551; stroke-opacity:1; 
stroke-linecap:round; stroke-linejoin:round;">
<path d="M112477 13864
L112721 13864
" />
<path d="M112428 14011
L112599 13499
L112769 14011
" />
</g>
<g style="fill:#000000; fill-opacity:0.0; 
stroke:#000000; stroke-width:39.3701; stroke-opacity:1; 
stroke-linecap:round; stroke-linejoin:round;">
</g>
<g style="fill:#000000; fill-opacity:0.0; 
stroke:#000000; stroke-width:59.0551; stroke-opacity:1; 
stroke-linecap:round; stroke-linejoin:round;">
<path d="M112635 33428
L112708 33452
L112733 33476
L112757 33525
L112757 33598
L112733 33647
L112708 33671
L112660 33696
L112465 33696
L112465 33184
L112635 33184
L112684 33208
L112708 33233
L112733 33281
L112733 33330
L112708 33379
L112684 33403
L112635 33428
L112465 33428
" />
</g>
<g style="fill:#000000; fill-opacity:0.0; 
stroke:#000000; stroke-width:39.3701; stroke-opacity:1; 
stroke-linecap:round; stroke-linejoin:round;">
</g>
<g style="fill:#000000; fill-opacity:0.0; 
stroke:#000000; stroke-width:59.0551; stroke-opacity:1; 
stroke-linecap:round; stroke-linejoin:round;">
<path d="M112757 53332
L112733 53356
L112660 53381
L112611 53381
L112538 53356
L112489 53308
L112465 53259
L112440 53161
L112440 53088
L112465 52991
L112489 52942
L112538 52893
L112611 52869
L112660 52869
L112733 52893
L112757 52918
" />
</g>
<g style="fill:#000000; fill-opacity:0.0; 
stroke:#000000; stroke-width:39.3701; stroke-opacity:1; 
stroke-linecap:round; stroke-linejoin:round;">
</g>
<g style="fill:#000000; fill-opacity:0.0; 
stroke:#000000; stroke-width:59.0551; stroke-opacity:1; 
stroke-linecap:round; stroke-linejoin:round;">
<path d="M112465 73066
L112465 72554
L112587 72554
L112660 72578
L112708 72627
L112733 72676
L112757 72773
L112757 72846
L112733 72944
L112708 72993
L112660 73041
L112587 73066
L112465 73066
" />
</g>
<g style="fill:#000000; fill-opacity:0.0; 
stroke:#000000; stroke-width:39.3701; stroke-opacity:1; 
stroke-linecap:round; stroke-linejoin:round;">
</g>
<g style="fill:#000000; fill-opacity:0.0; 
stroke:#000000; stroke-width:59.0551; stroke-opacity:1; 
stroke-linecap:round; stroke-linejoin:round;">
<path d="M78881 76293
L78881 75703
L79022 75703
L79106 75731
L79162 75787
L79190 75843
L79219 75956
L79219 76040
L79190 76153
L79162 76209
L79106 76265
L79022 76293
L78881 76293
" />
<path d="M79725 76293
L79725 75984
L79697 75928
L79640 75899
L79528 75899
L79472 75928
" />
<path d="M79725 76265
L79669 76293
L79528 76293
L79472 76265
L79444 76209
L79444 76153
L79472 76096
L79528 76068
L79669 76068
L79725 76040
" />
<path d="M79922 75899
L80147 75899
" />
<path d="M80006 75703
L80006 76209
L80034 76265
L80090 76293
L80147 76293
" />
<path d="M80568 76265
L80512 76293
L80400 76293
L80343 76265
L80315 76209
L80315 75984
L80343 75928
L80400 75899
L80512 75899
L80568 75928
L80597 75984
L80597 76040
L80315 76096
" />
<path d="M80850 76237
L80878 76265
L80850 76293
L80822 76265
L80850 76237
L80850 76293
" />
<path d="M80850 75928
L80878 75956
L80850 75984
L80822 75956
L80850 75928
L80850 75984
" />
</g>
<g style="fill:#000000; fill-opacity:0.0; 
stroke:#000000; stroke-width:39.3701; stroke-opacity:1; 
stroke-linecap:round; stroke-linejoin:round;">
</g>
<g style="fill:#000000; fill-opacity:0.0; 
stroke:#000000; stroke-width:59.0551; stroke-opacity:1; 
stroke-linecap:round; stroke-linejoin:round;">
<path d="M69685 76577
L112205 76577
" />
</g>
<g style="fill:#000000; fill-opacity:0.0; 
stroke:#000000; stroke-width:39.3701; stroke-opacity:1; 
stroke-linecap:round; stroke-linejoin:round;">
</g>
<g style="fill:#000000; fill-opacity:0.0; 
stroke:#000000; stroke-width:59.0551; stroke-opacity:1; 
stroke-linecap:round; stroke-linejoin:round;">
<path d="M70220 77395
L70220 76805
" />
<path d="M70557 77395
L70304 77058
" />
<path d="M70557 76805
L70220 77142
" />
<path d="M70810 77395
L70810 77002
" />
<path d="M70810 76805
L70782 76833
L70810 76861
L70838 76833
L70810 76805
L70810 76861
" />
<path d="M71429 77339
L71401 77367
L71316 77395
L71260 77395
L71176 77367
L71120 77311
L71091 77255
L71063 77142
L71063 77058
L71091 76946
L71120 76889
L71176 76833
L71260 76805
L71316 76805
L71401 76833
L71429 76861
" />
<path d="M71935 77395
L71935 77086
L71907 77030
L71851 77002
L71738 77002
L71682 77030
" />
<path d="M71935 77367
L71879 77395
L71738 77395
L71682 77367
L71654 77311
L71654 77255
L71682 77199
L71738 77171
L71879 77171
L71935 77142
" />
<path d="M72469 77395
L72469 76805
" />
<path d="M72469 77367
L72413 77395
L72301 77395
L72244 77367
L72216 77339
L72188 77283
L72188 77114
L72216 77058
L72244 77030
L72301 77002
L72413 77002
L72469 77030
" />
<path d="M73201 77086
L73397 77086
" />
<path d="M73482 77395
L73201 77395
L73201 76805
L73482 76805
" />
<path d="M73735 77339
L73763 77367
L73735 77395
L73707 77367
L73735 77339
L73735 77395
" />
<path d="M74016 77395
L74016 76805
L74157 76805
L74241 76833
L74297 76889
L74325 76946
L74354 77058
L74354 77142
L74325 77255
L74297 77311
L74241 77367
L74157 77395
L74016 77395
" />
<path d="M74607 77339
L74635 77367
L74607 77395
L74579 77367
L74607 77339
L74607 77395
" />
<path d="M74860 77227
L75141 77227
" />
<path d="M74804 77395
L75000 76805
L75197 77395
" />
<path d="M75394 77339
L75422 77367
L75394 77395
L75366 77367
L75394 77339
L75394 77395
" />
<path d="M76575 77395
L76575 76805
" />
<path d="M76631 77171
L76800 77395
" />
<path d="M76800 77002
L76575 77227
" />
<path d="M77053 77395
L77053 77002
" />
<path d="M77053 76805
L77025 76833
L77053 76861
L77081 76833
L77053 76805
L77053 76861
" />
<path d="M77588 77367
L77531 77395
L77419 77395
L77363 77367
L77334 77339
L77306 77283
L77306 77114
L77334 77058
L77363 77030
L77419 77002
L77531 77002
L77588 77030
" />
<path d="M78094 77395
L78094 77086
L78066 77030
L78009 77002
L77897 77002
L77841 77030
" />
<path d="M78094 77367
L78037 77395
L77897 77395
L77841 77367
L77813 77311
L77813 77255
L77841 77199
L77897 77171
L78037 77171
L78094 77142
" />
<path d="M78628 77395
L78628 76805
" />
<path d="M78628 77367
L78572 77395
L78459 77395
L78403 77367
L78375 77339
L78347 77283
L78347 77114
L78375 77058
L78403 77030
L78459 77002
L78572 77002
L78628 77030
" />
<path d="M79612 77002
L79612 77395
" />
<path d="M79472 76777
L79331 77199
L79697 77199
" />
<path d="M79922 77339
L79950 77367
L79922 77395
L79894 77367
L79922 77339
L79922 77395
" />
<path d="M80315 76805
L80372 76805
L80428 76833
L80456 76861
L80484 76917
L80512 77030
L80512 77171
L80484 77283
L80456 77339
L80428 77367
L80372 77395
L80315 77395
L80259 77367
L80231 77339
L80203 77283
L80175 77171
L80175 77030
L80203 76917
L80231 76861
L80259 76833
L80315 76805
" />
<path d="M80765 77339
L80793 77367
L80765 77395
L80737 77367
L80765 77339
L80765 77395
" />
<path d="M81328 76805
L81046 76805
L81018 77086
L81046 77058
L81103 77030
L81243 77030
L81300 77058
L81328 77086
L81356 77142
L81356 77283
L81328 77339
L81300 77367
L81243 77395
L81103 77395
L81046 77367
L81018 77339
" />
<path d="M81609 77171
L82059 77171
" />
<path d="M82565 77367
L82509 77395
L82396 77395
L82340 77367
L82312 77311
L82312 77086
L82340 77030
L82396 77002
L82509 77002
L82565 77030
L82593 77086
L82593 77142
L82312 77199
" />
<path d="M82959 76805
L83015 76805
L83071 76833
L83099 76861
L83127 76917
L83156 77030
L83156 77171
L83127 77283
L83099 77339
L83071 77367
L83015 77395
L82959 77395
L82903 77367
L82874 77339
L82846 77283
L82818 77171
L82818 77030
L82846 76917
L82874 76861
L82903 76833
L82959 76805
" />
<path d="M83409 77171
L83859 77171
" />
<path d="M84393 76805
L84280 76805
L84224 76833
L84196 76861
L84140 76946
L84112 77058
L84112 77283
L84140 77339
L84168 77367
L84224 77395
L84337 77395
L84393 77367
L84421 77339
L84449 77283
L84449 77142
L84421 77086
L84393 77058
L84337 77030
L84224 77030
L84168 77058
L84140 77086
L84112 77142
" />
<path d="M84646 76805
L85012 76805
L84815 77030
L84899 77030
L84955 77058
L84983 77086
L85012 77142
L85012 77283
L84983 77339
L84955 77367
L84899 77395
L84730 77395
L84674 77367
L84646 77339
" />
<path d="M85208 76805
L85574 76805
L85377 77030
L85462 77030
L85518 77058
L85546 77086
L85574 77142
L85574 77283
L85546 77339
L85518 77367
L85462 77395
L85293 77395
L85237 77367
L85208 77339
" />
<path d="M85771 76805
L86165 76805
L85912 77395
" />
<path d="M86643 77002
L86643 77395
" />
<path d="M86502 76777
L86361 77199
L86727 77199
" />
<path d="M86980 77395
L87093 77395
L87149 77367
L87177 77339
L87233 77255
L87261 77142
L87261 76917
L87233 76861
L87205 76833
L87149 76805
L87036 76805
L86980 76833
L86952 76861
L86924 76917
L86924 77058
L86952 77114
L86980 77142
L87036 77171
L87149 77171
L87205 77142
L87233 77114
L87261 77058
" />
<path d="M86249 76703
L87374 76703
" />
<path d="M87768 77002
L87768 77395
" />
<path d="M87514 77002
L87514 77311
L87543 77367
L87599 77395
L87683 77395
L87739 77367
L87768 77339
" />
<path d="M88049 77395
L88049 76805
" />
<path d="M88049 77030
L88105 77002
L88217 77002
L88274 77030
L88302 77058
L88330 77114
L88330 77283
L88302 77339
L88274 77367
L88217 77395
L88105 77395
L88049 77367
" />
<path d="M88836 77002
L88836 77395
" />
<path d="M88583 77002
L88583 77311
L88611 77367
L88667 77395
L88752 77395
L88808 77367
L88836 77339
" />
<path d="M89117 77002
L89117 77395
" />
<path d="M89117 77058
L89145 77030
L89202 77002
L89286 77002
L89342 77030
L89370 77086
L89370 77395
" />
<path d="M89567 77002
L89792 77002
" />
<path d="M89652 76805
L89652 77311
L89680 77367
L89736 77395
L89792 77395
" />
<path d="M90242 77002
L90242 77395
" />
<path d="M89989 77002
L89989 77311
L90017 77367
L90073 77395
L90158 77395
L90214 77367
L90242 77339
" />
<path d="M90833 77395
L90495 77395
" />
<path d="M90664 77395
L90664 76805
L90608 76889
L90552 76946
L90495 76974
" />
<path d="M91339 76805
L91226 76805
L91170 76833
L91142 76861
L91086 76946
L91058 77058
L91058 77283
L91086 77339
L91114 77367
L91170 77395
L91283 77395
L91339 77367
L91367 77339
L91395 77283
L91395 77142
L91367 77086
L91339 77058
L91283 77030
L91170 77030
L91114 77058
L91086 77086
L91058 77142
" />
<path d="M91648 77339
L91676 77367
L91648 77395
L91620 77367
L91648 77339
L91648 77395
" />
<path d="M92042 76805
L92098 76805
L92154 76833
L92183 76861
L92211 76917
L92239 77030
L92239 77171
L92211 77283
L92183 77339
L92154 77367
L92098 77395
L92042 77395
L91986 77367
L91958 77339
L91929 77283
L91901 77171
L91901 77030
L91929 76917
L91958 76861
L91986 76833
L92042 76805
" />
<path d="M92745 77002
L92745 77395
" />
<path d="M92604 76777
L92464 77199
L92829 77199
" />
<path d="M93054 77339
L93082 77367
L93054 77395
L93026 77367
L93054 77339
L93054 77395
" />
<path d="M93645 77395
L93307 77395
" />
<path d="M93476 77395
L93476 76805
L93420 76889
L93364 76946
L93307 76974
" />
</g>
<g style="fill:#000000; fill-opacity:0.0; 
stroke:#000000; stroke-width:39.3701; stroke-opacity:1; 
stroke-linecap:round; stroke-linejoin:round;">
</g>
<g style="fill:#000000; fill-opacity:0.0; 
stroke:#000000; stroke-width:59.0551; stroke-opacity:1; 
stroke-linecap:round; stroke-linejoin:round;">
<path d="M69685 75396
L112205 75396
" />
</g>
<g style="fill:#000000; fill-opacity:0.0; 
stroke:#000000; stroke-width:39.3701; stroke-opacity:1; 
stroke-linecap:round; stroke-linejoin:round;">
</g>
<g style="fill:#000000; fill-opacity:0.0; 
stroke:#000000; stroke-width:118.11; stroke-opacity:1; 
stroke-linecap:round; stroke-linejoin:round;">
<path d="M104022 76293
L103825 76012
" />
<path d="M103684 76293
L103684 75703
L103909 75703
L103965 75731
L103994 75759
L104022 75815
L104022 75899
L103994 75956
L103965 75984
L103909 76012
L103684 76012
" />
<path d="M104500 76265
L104444 76293
L104331 76293
L104275 76265
L104247 76209
L104247 75984
L104275 75928
L104331 75899
L104444 75899
L104500 75928
L104528 75984
L104528 76040
L104247 76096
" />
<path d="M104725 75899
L104865 76293
L105006 75899
" />
<path d="M105231 76237
L105259 76265
L105231 76293
L105203 76265
L105231 76237
L105231 76293
" />
<path d="M105231 75928
L105259 75956
L105231 75984
L105203 75956
L105231 75928
L105231 75984
" />
</g>
<g style="fill:#000000; fill-opacity:0.0; 
stroke:#000000; stroke-width:39.3701; stroke-opacity:1; 
stroke-linecap:round; stroke-linejoin:round;">
</g>
<g style="fill:#000000; fill-opacity:0.0; 
stroke:#000000; stroke-width:59.0551; stroke-opacity:1; 
stroke-linecap:round; stroke-linejoin:round;">
<path d="M70192 76265
L70276 76293
L70417 76293
L70473 76265
L70501 76237
L70529 76181
L70529 76124
L70501 76068
L70473 76040
L70417 76012
L70304 75984
L70248 75956
L70220 75928
L70192 75871
L70192 75815
L70220 75759
L70248 75731
L70304 75703
L70445 75703
L70529 75731
" />
<path d="M70782 76293
L70782 75899
" />
<path d="M70782 75703
L70754 75731
L70782 75759
L70810 75731
L70782 75703
L70782 75759
" />
<path d="M71007 75899
L71316 75899
L71007 76293
L71316 76293
" />
<path d="M71766 76265
L71710 76293
L71598 76293
L71541 76265
L71513 76209
L71513 75984
L71541 75928
L71598 75899
L71710 75899
L71766 75928
L71795 75984
L71795 76040
L71513 76096
" />
<path d="M72048 76237
L72076 76265
L72048 76293
L72019 76265
L72048 76237
L72048 76293
" />
<path d="M72048 75928
L72076 75956
L72048 75984
L72019 75956
L72048 75928
L72048 75984
" />
<path d="M72751 76124
L73032 76124
" />
<path d="M72694 76293
L72891 75703
L73088 76293
" />
<path d="M73538 75899
L73538 76293
" />
<path d="M73397 75674
L73257 76096
L73622 76096
" />
</g>
<g style="fill:#000000; fill-opacity:0.0; 
stroke:#000000; stroke-width:39.3701; stroke-opacity:1; 
stroke-linecap:round; stroke-linejoin:round;">
</g>
<g style="fill:#000000; fill-opacity:0.0; 
stroke:#000000; stroke-width:59.0551; stroke-opacity:1; 
stroke-linecap:round; stroke-linejoin:round;">
<path d="M103684 77395
L103684 76805
" />
<path d="M104219 77395
L104219 76805
" />
<path d="M104219 77367
L104162 77395
L104050 77395
L103994 77367
L103965 77339
L103937 77283
L103937 77114
L103965 77058
L103994 77030
L104050 77002
L104162 77002
L104219 77030
" />
<path d="M104500 77339
L104528 77367
L104500 77395
L104472 77367
L104500 77339
L104500 77395
" />
<path d="M104500 77030
L104528 77058
L104500 77086
L104472 77058
L104500 77030
L104500 77086
" />
<path d="M105540 77395
L105203 77395
" />
<path d="M105372 77395
L105372 76805
L105315 76889
L105259 76946
L105203 76974
" />
<path d="M106215 76777
L105709 77536
" />
<path d="M106721 77395
L106384 77395
" />
<path d="M106553 77395
L106553 76805
L106496 76889
L106440 76946
L106384 76974
" />
</g>
<g style="fill:#000000; fill-opacity:0.0; 
stroke:#000000; stroke-width:39.3701; stroke-opacity:1; 
stroke-linecap:round; stroke-linejoin:round;">
</g>
<g style="fill:#000000; fill-opacity:0.0; 
stroke:#000000; stroke-width:59.0551; stroke-opacity:1; 
stroke-linecap:round; stroke-linejoin:round;">
<path d="M69685 73821
L112205 73821
" />
</g>
<g style="fill:#000000; fill-opacity:0.0; 
stroke:#000000; stroke-width:39.3701; stroke-opacity:1; 
stroke-linecap:round; stroke-linejoin:round;">
</g>
<g style="fill:#000000; fill-opacity:0.0; 
stroke:#000000; stroke-width:157.48; stroke-opacity:1; 
stroke-linecap:round; stroke-linejoin:round;">
<path d="M70257 74099
L70707 74099
" />
<path d="M70384 74886
L70482 74099
" />
<path d="M70871 74886
L70937 74361
" />
<path d="M70970 74099
L70927 74136
L70960 74174
L71002 74136
L70970 74099
L70960 74174
" />
<path d="M71199 74361
L71499 74361
" />
<path d="M71345 74099
L71260 74774
L71288 74849
L71359 74886
L71434 74886
" />
<path d="M71809 74886
L71738 74849
L71710 74774
L71795 74099
" />
<path d="M72413 74849
L72334 74886
L72184 74886
L72113 74849
L72085 74774
L72123 74474
L72169 74399
L72249 74361
L72399 74361
L72469 74399
L72498 74474
L72488 74549
L72104 74624
" />
<path d="M72793 74811
L72826 74849
L72783 74886
L72751 74849
L72793 74811
L72783 74886
" />
<path d="M72844 74399
L72877 74436
L72835 74474
L72802 74436
L72844 74399
L72835 74474
" />
</g>
<g style="fill:#000000; fill-opacity:0.0; 
stroke:#000000; stroke-width:39.3701; stroke-opacity:1; 
stroke-linecap:round; stroke-linejoin:round;">
</g>
<g style="fill:#000000; fill-opacity:0.0; 
stroke:#000000; stroke-width:59.0551; stroke-opacity:1; 
stroke-linecap:round; stroke-linejoin:round;">
<path d="M70417 73070
L70220 73070
" />
<path d="M70220 73380
L70220 72789
L70501 72789
" />
<path d="M70726 73380
L70726 72986
" />
<path d="M70726 72789
L70698 72817
L70726 72845
L70754 72817
L70726 72789
L70726 72845
" />
<path d="M71091 73380
L71035 73352
L71007 73295
L71007 72789
" />
<path d="M71541 73352
L71485 73380
L71373 73380
L71316 73352
L71288 73295
L71288 73070
L71316 73014
L71373 72986
L71485 72986
L71541 73014
L71570 73070
L71570 73127
L71288 73183
" />
<path d="M71823 73323
L71851 73352
L71823 73380
L71795 73352
L71823 73323
L71823 73380
" />
<path d="M71823 73014
L71851 73042
L71823 73070
L71795 73042
L71823 73014
L71823 73070
" />
<path d="M72526 73211
L72807 73211
" />
<path d="M72469 73380
L72666 72789
L72863 73380
" />
<path d="M73060 73380
L73060 72986
" />
<path d="M73060 73099
L73088 73042
L73116 73014
L73172 72986
L73229 72986
" />
<path d="M73679 73380
L73679 72789
" />
<path d="M73679 73352
L73622 73380
L73510 73380
L73454 73352
L73426 73323
L73397 73267
L73397 73099
L73426 73042
L73454 73014
L73510 72986
L73622 72986
L73679 73014
" />
<path d="M74213 72986
L74213 73380
" />
<path d="M73960 72986
L73960 73295
L73988 73352
L74044 73380
L74129 73380
L74185 73352
L74213 73323
" />
<path d="M74494 73380
L74494 72986
" />
<path d="M74494 72789
L74466 72817
L74494 72845
L74522 72817
L74494 72789
L74494 72845
" />
<path d="M74775 72986
L74775 73380
" />
<path d="M74775 73042
L74804 73014
L74860 72986
L74944 72986
L75000 73014
L75028 73070
L75028 73380
" />
<path d="M75394 73380
L75338 73352
L75310 73323
L75282 73267
L75282 73099
L75310 73042
L75338 73014
L75394 72986
L75478 72986
L75535 73014
L75563 73042
L75591 73099
L75591 73267
L75563 73323
L75535 73352
L75478 73380
L75394 73380
" />
<path d="M75703 73436
L76153 73436
" />
<path d="M76294 73380
L76294 72789
L76519 72789
L76575 72817
L76603 72845
L76631 72902
L76631 72986
L76603 73042
L76575 73070
L76519 73099
L76294 73099
" />
<path d="M76885 73380
L76885 72986
" />
<path d="M76885 73099
L76913 73042
L76941 73014
L76997 72986
L77053 72986
" />
<path d="M77334 73380
L77278 73352
L77250 73323
L77222 73267
L77222 73099
L77250 73042
L77278 73014
L77334 72986
L77419 72986
L77475 73014
L77503 73042
L77531 73099
L77531 73267
L77503 73323
L77475 73352
L77419 73380
L77334 73380
" />
<path d="M77784 73323
L77813 73352
L77784 73380
L77756 73352
L77784 73323
L77784 73380
" />
<path d="M78066 73380
L78066 72789
" />
<path d="M78122 73155
L78291 73380
" />
<path d="M78291 72986
L78066 73211
" />
<path d="M78544 73380
L78544 72986
" />
<path d="M78544 72789
L78516 72817
L78544 72845
L78572 72817
L78544 72789
L78544 72845
" />
<path d="M79078 73352
L79022 73380
L78909 73380
L78853 73352
L78825 73323
L78797 73267
L78797 73099
L78825 73042
L78853 73014
L78909 72986
L79022 72986
L79078 73014
" />
<path d="M79584 73380
L79584 73070
L79556 73014
L79500 72986
L79387 72986
L79331 73014
" />
<path d="M79584 73352
L79528 73380
L79387 73380
L79331 73352
L79303 73295
L79303 73239
L79331 73183
L79387 73155
L79528 73155
L79584 73127
" />
<path d="M80118 73380
L80118 72789
" />
<path d="M80118 73352
L80062 73380
L79950 73380
L79894 73352
L79865 73323
L79837 73267
L79837 73099
L79865 73042
L79894 73014
L79950 72986
L80062 72986
L80118 73014
" />
<path d="M80259 73436
L80709 73436
" />
<path d="M80850 72986
L80850 73577
" />
<path d="M80850 73014
L80906 72986
L81018 72986
L81075 73014
L81103 73042
L81131 73099
L81131 73267
L81103 73323
L81075 73352
L81018 73380
L80906 73380
L80850 73352
" />
<path d="M81637 73352
L81581 73380
L81468 73380
L81412 73352
L81384 73323
L81356 73267
L81356 73099
L81384 73042
L81412 73014
L81468 72986
L81581 72986
L81637 73014
" />
<path d="M81890 73380
L81890 72789
" />
<path d="M81890 73014
L81946 72986
L82059 72986
L82115 73014
L82143 73042
L82171 73099
L82171 73267
L82143 73323
L82115 73352
L82059 73380
L81946 73380
L81890 73352
" />
</g>
<g style="fill:#000000; fill-opacity:0.0; 
stroke:#000000; stroke-width:39.3701; stroke-opacity:1; 
stroke-linecap:round; stroke-linejoin:round;">
</g>
<g style="fill:#000000; fill-opacity:0.0; 
stroke:#000000; stroke-width:59.0551; stroke-opacity:1; 
stroke-linecap:round; stroke-linejoin:round;">
<path d="M69685 71459
L112205 71459
" />
</g>
<g style="fill:#000000; fill-opacity:0.0; 
stroke:#000000; stroke-width:39.3701; stroke-opacity:1; 
stroke-linecap:round; stroke-linejoin:round;">
</g>
<g style="fill:#000000; fill-opacity:0.0; 
stroke:#000000; stroke-width:59.0551; stroke-opacity:1; 
stroke-linecap:round; stroke-linejoin:round;">
<path d="M70192 72289
L70276 72317
L70417 72317
L70473 72289
L70501 72260
L70529 72204
L70529 72148
L70501 72092
L70473 72064
L70417 72036
L70304 72007
L70248 71979
L70220 71951
L70192 71895
L70192 71839
L70220 71782
L70248 71754
L70304 71726
L70445 71726
L70529 71754
" />
<path d="M70782 72317
L70782 71726
" />
<path d="M71035 72317
L71035 72007
L71007 71951
L70951 71923
L70867 71923
L70810 71951
L70782 71979
" />
<path d="M71541 72289
L71485 72317
L71373 72317
L71316 72289
L71288 72232
L71288 72007
L71316 71951
L71373 71923
L71485 71923
L71541 71951
L71570 72007
L71570 72064
L71288 72120
" />
<path d="M72048 72289
L71991 72317
L71879 72317
L71823 72289
L71795 72232
L71795 72007
L71823 71951
L71879 71923
L71991 71923
L72048 71951
L72076 72007
L72076 72064
L71795 72120
" />
<path d="M72244 71923
L72469 71923
" />
<path d="M72329 71726
L72329 72232
L72357 72289
L72413 72317
L72469 72317
" />
<path d="M72666 72260
L72694 72289
L72666 72317
L72638 72289
L72666 72260
L72666 72317
" />
<path d="M72666 71951
L72694 71979
L72666 72007
L72638 71979
L72666 71951
L72666 72007
" />
</g>
<g style="fill:#000000; fill-opacity:0.0; 
stroke:#000000; stroke-width:39.3701; stroke-opacity:1; 
stroke-linecap:round; stroke-linejoin:round;">
</g>
<g style="fill:#000000; fill-opacity:0.0; 
stroke:#000000; stroke-width:59.0551; stroke-opacity:1; 
stroke-linecap:round; stroke-linejoin:round;">
<path d="M77559 75396
L77559 76577
" />
</g>
<g style="fill:#000000; fill-opacity:0.0; 
stroke:#000000; stroke-width:39.3701; stroke-opacity:1; 
stroke-linecap:round; stroke-linejoin:round;">
</g>
<g style="fill:#000000; fill-opacity:0.0; 
stroke:#000000; stroke-width:59.0551; stroke-opacity:1; 
stroke-linecap:round; stroke-linejoin:round;">
<path d="M102756 75396
L102756 77955
" />
</g>
<g style="fill:#C2C200; fill-opacity:0.0; 
stroke:#C2C200; stroke-width:59.0551; stroke-opacity:1; 
stroke-linecap:round; stroke-linejoin:round;">
<path d="M61023 39370
L74803 39370
" />
<path d="M61023 29527
L61023 39370
" />
<path d="M74803 29527
L61023 29527
" />
<path d="M74803 39370
L74803 29527
" />
<path d="M65539 37207
L65520 37226
L65464 37245
L65426 37245
L65370 37226
L65333 37188
L65314 37151
L65295 37076
L65295 37020
L65314 36945
L65333 36907
L65370 36870
L65426 36851
L65464 36851
L65520 36870
L65539 36888
" />
<path d="M65689 36888
L65708 36870
L65745 36851
L65839 36851
L65876 36870
L65895 36888
L65914 36926
L65914 36963
L65895 37020
L65670 37245
L65914 37245
" />
<path d="M64809 32498
L64790 32517
L64734 32536
L64697 32536
L64640 32517
L64603 32479
L64584 32442
L64565 32367
L64565 32311
L64584 32236
L64603 32198
L64640 32161
L64697 32142
L64734 32142
L64790 32161
L64809 32179
" />
<path d="M64940 32142
L65184 32142
L65053 32292
L65109 32292
L65147 32311
L65165 32329
L65184 32367
L65184 32461
L65165 32498
L65147 32517
L65109 32536
L64997 32536
L64959 32517
L64940 32498
" />
<path d="M65459 37912
L65440 37931
L65384 37950
L65346 37950
L65290 37931
L65252 37893
L65234 37856
L65215 37781
L65215 37725
L65234 37650
L65252 37612
L65290 37575
L65346 37556
L65384 37556
L65440 37575
L65459 37593
" />
<path d="M65815 37556
L65627 37556
L65609 37743
L65627 37725
L65665 37706
L65759 37706
L65796 37725
L65815 37743
L65834 37781
L65834 37875
L65815 37912
L65796 37931
L65759 37950
L65665 37950
L65627 37931
L65609 37912
" />
<path d="M68888 32065
L68907 32084
L68926 32140
L68926 32178
L68907 32234
L68869 32271
L68832 32290
L68757 32309
L68701 32309
L68626 32290
L68588 32271
L68551 32234
L68532 32178
L68532 32140
L68551 32084
L68569 32065
" />
<path d="M68701 31840
L68682 31878
L68663 31896
L68626 31915
L68607 31915
L68569 31896
L68551 31878
L68532 31840
L68532 31765
L68551 31728
L68569 31709
L68607 31690
L68626 31690
L68663 31709
L68682 31728
L68701 31765
L68701 31840
L68719 31878
L68738 31896
L68776 31915
L68851 31915
L68888 31896
L68907 31878
L68926 31840
L68926 31765
L68907 31728
L68888 31709
L68851 31690
L68776 31690
L68738 31709
L68719 31728
L68701 31765
" />
<path d="M66132 38300
L66151 38319
L66170 38375
L66170 38413
L66151 38469
L66113 38507
L66076 38525
L66001 38544
L65945 38544
L65870 38525
L65832 38507
L65795 38469
L65776 38413
L65776 38375
L65795 38319
L65813 38300
" />
<path d="M66170 38113
L66170 38038
L66151 38000
L66132 37982
L66076 37944
L66001 37925
L65851 37925
L65813 37944
L65795 37963
L65776 38000
L65776 38075
L65795 38113
L65813 38132
L65851 38150
L65945 38150
L65982 38132
L66001 38113
L66020 38075
L66020 38000
L66001 37963
L65982 37944
L65945 37925
" />
<path d="M67299 30722
L67299 30328
L67392 30328
L67449 30347
L67486 30385
L67505 30422
L67524 30497
L67524 30553
L67505 30628
L67486 30666
L67449 30703
L67392 30722
L67299 30722
" />
<path d="M67898 30722
L67674 30722
" />
<path d="M67786 30722
L67786 30328
L67749 30385
L67711 30422
L67674 30441
" />
<path d="M64729 36045
L64729 35651
L64823 35651
L64879 35670
L64916 35707
L64935 35745
L64954 35820
L64954 35876
L64935 35951
L64916 35988
L64879 36026
L64823 36045
L64729 36045
" />
<path d="M65104 35689
L65123 35670
L65160 35651
L65254 35651
L65291 35670
L65310 35689
L65329 35726
L65329 35764
L65310 35820
L65085 36045
L65329 36045
" />
<path d="M62314 38185
L62314 37792
L62408 37792
L62464 37811
L62501 37848
L62520 37886
L62539 37961
L62539 38017
L62520 38092
L62501 38129
L62464 38167
L62408 38185
L62314 38185
" />
<path d="M62670 37792
L62914 37792
L62783 37942
L62839 37942
L62876 37961
L62895 37979
L62914 38017
L62914 38110
L62895 38148
L62876 38167
L62839 38185
L62726 38185
L62689 38167
L62670 38148
" />
<path d="M73699 33020
L73699 32626
L73793 32626
L73849 32645
L73886 32682
L73905 32720
L73924 32795
L73924 32851
L73905 32926
L73886 32963
L73849 33001
L73793 33020
L73699 33020
" />
<path d="M74261 32757
L74261 33020
" />
<path d="M74168 32607
L74074 32888
L74318 32888
" />
<path d="M62708 36804
L62576 36804
" />
<path d="M62576 37010
L62576 36617
L62764 36617
" />
<path d="M63120 37010
L62895 37010
" />
<path d="M63008 37010
L63008 36617
L62970 36673
L62933 36710
L62895 36729
" />
<path d="M66655 32578
L66936 32578
L66992 32596
L67030 32634
L67049 32690
L67049 32728
" />
<path d="M67049 32390
L66655 32390
L66655 32240
L66674 32203
L66692 32184
L66730 32165
L66786 32165
L66824 32184
L66842 32203
L66861 32240
L66861 32390
" />
<path d="M67049 31790
L67049 32015
" />
<path d="M67049 31903
L66655 31903
L66711 31940
L66749 31978
L66767 32015
" />
<path d="M68010 38790
L67617 38790
L67617 38640
L67635 38603
L67654 38584
L67692 38565
L67748 38565
L67785 38584
L67804 38603
L67823 38640
L67823 38790
" />
<path d="M68010 38190
L68010 38415
" />
<path d="M68010 38303
L67617 38303
L67673 38340
L67710 38378
L67729 38415
" />
<path d="M68010 30790
L67617 30790
L67617 30640
L67635 30603
L67654 30584
L67692 30565
L67748 30565
L67785 30584
L67804 30603
L67823 30640
L67823 30790
" />
<path d="M67654 30415
L67635 30396
L67617 30359
L67617 30265
L67635 30228
L67654 30209
L67692 30190
L67729 30190
L67785 30209
L68010 30434
L68010 30190
" />
<path d="M61199 34222
L60806 34222
L60806 34072
L60824 34035
L60843 34016
L60881 33997
L60937 33997
L60974 34016
L60993 34035
L61012 34072
L61012 34222
" />
<path d="M60806 33866
L60806 33623
L60956 33754
L60956 33698
L60974 33660
L60993 33641
L61031 33623
L61124 33623
L61162 33641
L61181 33660
L61199 33698
L61199 33810
L61181 33847
L61162 33866
" />
<path d="M65854 34896
L65723 34708
" />
<path d="M65629 34896
L65629 34502
L65779 34502
L65816 34521
L65835 34539
L65854 34577
L65854 34633
L65835 34671
L65816 34689
L65779 34708
L65629 34708
" />
<path d="M66229 34896
L66004 34896
" />
<path d="M66116 34896
L66116 34502
L66079 34558
L66041 34596
L66004 34614
" />
<path d="M65819 32166
L65688 31978
" />
<path d="M65594 32166
L65594 31772
L65744 31772
L65782 31791
L65800 31809
L65819 31847
L65819 31903
L65800 31941
L65782 31959
L65744 31978
L65594 31978
" />
<path d="M65969 31809
L65988 31791
L66025 31772
L66119 31772
L66157 31791
L66175 31809
L66194 31847
L66194 31884
L66175 31941
L65950 32166
L66194 32166
" />
<path d="M64994 35985
L64863 35797
" />
<path d="M64769 35985
L64769 35591
L64919 35591
L64956 35610
L64975 35628
L64994 35666
L64994 35722
L64975 35760
L64956 35778
L64919 35797
L64769 35797
" />
<path d="M65125 35591
L65369 35591
L65238 35741
L65294 35741
L65331 35760
L65350 35778
L65369 35816
L65369 35910
L65350 35947
L65331 35966
L65294 35985
L65181 35985
L65144 35966
L65125 35947
" />
<path d="M71399 35770
L71267 35582
" />
<path d="M71174 35770
L71174 35376
L71324 35376
L71361 35395
L71380 35413
L71399 35451
L71399 35507
L71380 35545
L71361 35563
L71324 35582
L71174 35582
" />
<path d="M71736 35507
L71736 35770
" />
<path d="M71642 35357
L71549 35638
L71792 35638
" />
<path d="M61720 37230
L61532 37361
" />
<path d="M61720 37455
L61326 37455
L61326 37305
L61345 37267
L61363 37249
L61401 37230
L61457 37230
L61495 37249
L61513 37267
L61532 37305
L61532 37455
" />
<path d="M61326 36874
L61326 37061
L61513 37080
L61495 37061
L61476 37024
L61476 36930
L61495 36892
L61513 36874
L61551 36855
L61645 36855
L61682 36874
L61701 36892
L61720 36930
L61720 37024
L61701 37061
L61682 37080
" />
<path d="M74109 32536
L73978 32348
" />
<path d="M73884 32536
L73884 32142
L74034 32142
L74072 32161
L74090 32179
L74109 32217
L74109 32273
L74090 32311
L74072 32329
L74034 32348
L73884 32348
" />
<path d="M74447 32142
L74372 32142
L74334 32161
L74315 32179
L74278 32236
L74259 32311
L74259 32461
L74278 32498
L74297 32517
L74334 32536
L74409 32536
L74447 32517
L74465 32498
L74484 32461
L74484 32367
L74465 32329
L74447 32311
L74409 32292
L74334 32292
L74297 32311
L74278 32329
L74259 32367
" />
<path d="M60862 30889
L61181 30889
L61218 30871
L61237 30852
L61256 30814
L61256 30739
L61237 30702
L61218 30683
L61181 30664
L60862 30664
" />
<path d="M61256 30271
L61256 30496
" />
<path d="M61256 30383
L60862 30383
L60918 30421
L60956 30458
L60975 30496
" />
<path d="M68634 32558
L68859 32783
L68899 32797
L68925 32797
L68965 32783
L69018 32730
L69032 32691
L69032 32664
L69018 32624
L68793 32399
" />
<path d="M68939 32306
L68939 32280
L68952 32240
L69018 32174
L69058 32160
L69085 32160
L69124 32174
L69151 32200
L69177 32253
L69177 32571
L69350 32399
" />
</g>
<g style="fill:#008484; fill-opacity:0.0; 
stroke:#008484; stroke-width:59.0551; stroke-opacity:1; 
stroke-linecap:round; stroke-linejoin:round;">
</g>
<g style="fill:#008484; fill-opacity:0.0; 
stroke:#008484; stroke-width:47.2441; stroke-opacity:1; 
stroke-linecap:round; stroke-linejoin:round;">
<path d="M65467 37578
L65742 37578
" />
<path d="M65742 38051
L65467 38051
" />
<path d="M65013 31846
L64737 31846
" />
<path d="M64737 31373
L65013 31373
" />
<path d="M65386 38283
L65662 38283
" />
<path d="M65662 38756
L65386 38756
" />
<path d="M68236 31862
L68236 32137
" />
<path d="M67763 32137
L67763 31862
" />
<path d="M66503 38373
L66503 38097
" />
<path d="M66976 38097
L66976 38373
" />
<path d="M68101 31351
L68101 30918
" />
<path d="M68101 30918
L67274 30918
" />
<path d="M68101 31351
L67274 31351
" />
<path d="M65531 35571
L65531 35178
" />
<path d="M65531 35178
L64705 35178
" />
<path d="M65531 35571
L64705 35571
" />
<path d="M62093 38303
L62093 38696
" />
<path d="M62093 38696
L62920 38696
" />
<path d="M62093 38303
L62920 38303
" />
<path d="M74501 32546
L74501 32153
" />
<path d="M74501 32153
L73675 32153
" />
<path d="M74501 32546
L73675 32546
" />
<path d="M62406 35328
L63193 35328
" />
<path d="M63193 36171
L62406 36171
" />
<path d="M65930 31702
L65382 31702
" />
<path d="M65382 31702
L65382 32797
" />
<path d="M65382 32797
L65930 32797
" />
<path d="M65930 32797
L65930 31702
" />
<path d="M66180 31702
L66477 31702
" />
<path d="M66477 31702
L66477 32250
" />
<path d="M68750 39023
L74273 39023
" />
<path d="M74273 39023
L74273 37976
" />
<path d="M74273 37976
L68750 37976
" />
<path d="M68750 37976
L68750 39023
" />
<path d="M68500 39023
L68226 39023
" />
<path d="M68226 39023
L68226 38500
" />
<path d="M68750 31023
L74273 31023
" />
<path d="M74273 31023
L74273 29976
" />
<path d="M74273 29976
L68750 29976
" />
<path d="M68750 29976
L68750 31023
" />
<path d="M68500 31023
L68226 31023
" />
<path d="M68226 31023
L68226 30500
" />
<path d="M64494 34916
L64494 31767
" />
<path d="M61612 34916
L61612 31767
" />
<path d="M61612 31767
L64494 31767
" />
<path d="M64250 31767
L64250 34916
" />
<path d="M64494 34916
L61612 34916
" />
</g>
<g style="fill:#008484; fill-opacity:0.0; 
stroke:#008484; stroke-width:59.0551; stroke-opacity:1; 
stroke-linecap:round; stroke-linejoin:round;">
<path d="M65723 33704
L66116 33704
" />
<path d="M66116 34235
L65723 34235
" />
<path d="M65688 30974
L66082 30974
" />
<path d="M66082 31505
L65688 31505
" />
<path d="M65256 36820
L64863 36820
" />
<path d="M64863 36289
L65256 36289
" />
<path d="M71661 36605
L71267 36605
" />
<path d="M71267 36074
L71661 36074
" />
<path d="M62555 36967
L62555 37361
" />
<path d="M62024 37361
L62024 36967
" />
<path d="M73978 31344
L74372 31344
" />
<path d="M74372 31875
L73978 31875
" />
</g>
<g style="fill:#008484; fill-opacity:0.0; 
stroke:#008484; stroke-width:47.2441; stroke-opacity:1; 
stroke-linecap:round; stroke-linejoin:round;">
<path d="M62853 30944
L62853 30235
" />
<path d="M61586 30235
L61586 31200
" />
</g>
<g style="fill:#008484; fill-opacity:0.0; 
stroke:#008484; stroke-width:59.0551; stroke-opacity:1; 
stroke-linecap:round; stroke-linejoin:round;">
<path d="M68247 34628
L68414 34795
" />
<path d="M71128 31747
L71315 31933
" />
<path d="M74009 34628
L73823 34442
" />
<path d="M71128 37509
L70942 37323
" />
<path d="M68247 34628
L68433 34442
" />
<path d="M71128 37509
L71315 37323
" />
<path d="M74009 34628
L73823 34815
" />
<path d="M71128 31747
L70942 31933
" />
<path d="M68414 34795
L68003 35206
" />
</g> 
</svg>
